<?xml version="1.0" encoding="UTF-8"?>
<svg xmlns="http://www.w3.org/2000/svg" viewBox="0 0 360 81.24">
  <rect x="333.19" y="36.44" width="22" height="43.95" fill="#ffcd01"/>
  <polygon points="344.19 7.26 350.74 0 350.22 9.78 360 9.26 352.74 15.81 352.74 15.81 360 22.37 350.22 21.88 350.74 31.62 344.19 24.37 337.63 31.62 338.12 21.88 328.38 22.37 335.63 15.81 335.63 15.81 328.38 9.26 338.12 9.78 337.63 0 344.19 7.26" fill="#ffcd01"/>
  <polygon points="275.61 36.44 328.38 36.44 328.38 36.44 301.97 80.43 275.61 36.44" fill="#ed2738"/>
  <polygon points="313.45 36.44 301.97 55.58 290.5 36.44 313.45 36.44" fill="#ffb4ab"/>
  <path d="m257.1,58.43h4.04c6.59,0,11.85-5.81,10.89-12.63-.78-5.44-5.7-9.37-11.22-9.37h-25.7v43.88s.04.04.04.04h43.92l-21.96-21.92Z" fill="#d7a9e4"/>
  <rect x="235.13" y="36.43" width="22" height="43.99" fill="#ab4ec5"/>
  <circle cx="208.33" cy="58.42" r="22" transform="translate(19.7 164.42) rotate(-45)" fill="#3080e2"/>
  <circle cx="208.33" cy="58.43" r="9.11" transform="translate(-6.67 34.13) rotate(-9.22)" fill="#c3d8ee"/>
  <path d="m181.41,36.44h-21.55c-11,0-20.66,7.89-22.22,18.77-1.93,13.55,8.55,25.18,21.77,25.18h22v-43.95h0Z" fill="#43b029"/>
  <path d="m181.41,50.21h-19.29c-3.89,0-7.44,2.59-8.26,6.41-1.15,5.33,2.89,10.03,8.04,10.03h19.51v-16.44h0Z" fill="#c1e28a"/>
  <path d="m111.46,81.24c-3.3,0-6.22-.7-8.74-2.11-2.52-1.41-4.48-3.37-5.89-5.92s-2.11-5.48-2.11-8.78v-26.81h8.33v25.37c0,3.37.96,6.04,2.89,8,1.93,1.96,4.52,2.93,7.78,2.93,2.3,0,4.33-.48,6.15-1.48,1.78-.96,3.26-2.37,4.37-4.15v-30.66h8.41v42.77h-8.41v-4.37c-3.3,3.48-7.55,5.22-12.78,5.22Z" fill="#3f4442"/>
  <path d="m67.69,81.09c-3.96,0-7.63-.96-10.92-2.93-3.3-1.96-5.92-4.59-7.81-7.92-1.89-3.33-2.85-7.07-2.85-11.22s.96-7.85,2.89-11.18c1.93-3.3,4.55-5.92,7.85-7.89s6.96-2.93,11-2.93c2.37,0,4.63.37,6.81,1.07,2.18.74,4.18,1.78,6.04,3.18v-19.66l8.41-1.59v60.39h-8.33v-4.11c-3.63,3.18-8,4.78-13.07,4.78Zm1.07-7.33c2.48,0,4.7-.44,6.78-1.33,2.04-.89,3.78-2.18,5.18-3.85v-19.26c-1.41-1.56-3.11-2.81-5.18-3.74-2.04-.93-4.3-1.37-6.78-1.37-2.7,0-5.11.63-7.29,1.93s-3.93,3.04-5.22,5.26-1.93,4.7-1.93,7.52.63,5.33,1.93,7.55c1.3,2.26,3.04,4.04,5.22,5.33,2.18,1.33,4.59,1.96,7.29,1.96Z" fill="#3f4442"/>
  <path d="m22.44,80.76c-4.18,0-8-.96-11.37-2.93-3.41-1.96-6.07-4.63-8.07-8s-3-7.11-3-11.26.96-7.81,2.85-11.15c1.89-3.33,4.48-6,7.74-8,3.26-2,6.85-3,10.85-3s7.52,1,10.59,3c3.07,2,5.52,4.67,7.37,8.07,1.81,3.41,2.74,7.22,2.74,11.48v2.37H8.44c.44,2.37,1.33,4.44,2.63,6.3,1.33,1.85,3,3.3,5.04,4.37,2.04,1.07,4.26,1.59,6.67,1.59,2.07,0,4.07-.33,6-.96,1.93-.63,3.55-1.59,4.81-2.81l5.37,5.3c-2.52,1.89-5.11,3.33-7.78,4.26-2.63.89-5.55,1.37-8.74,1.37Zm-13.92-25.74h25.29c-.33-2.22-1.11-4.22-2.3-5.92-1.22-1.7-2.7-3.04-4.44-4.04-1.78-.96-3.67-1.48-5.74-1.48s-4.07.48-5.89,1.44c-1.78.96-3.3,2.3-4.48,4-1.26,1.7-2.07,3.7-2.44,6Z" fill="#3f4442"/>
</svg>