<?xml version="1.0" encoding="UTF-8" standalone="no"?>
<!-- Created with Inkscape (http://www.inkscape.org/) -->

<svg
   version="1.1"
   id="svg2"
   width="1203.5928"
   height="341.27972"
   viewBox="0 0 1203.5927 341.27972"
   xmlns="http://www.w3.org/2000/svg"
   xmlns:svg="http://www.w3.org/2000/svg">
  <defs
     id="defs6">
    <clipPath
       clipPathUnits="userSpaceOnUse"
       id="clipPath16">
      <path
         d="M 0,774 H 1236.882 V 0 H 0 Z"
         id="path14" />
    </clipPath>
  </defs>
  <g
     id="g8"
     transform="matrix(1.3333333,0,0,-1.3333333,-229.79381,779.35491)">
    <g
       id="g10">
      <g
         id="g12"
         clip-path="url(#clipPath16)">
        <g
           id="g18"
           transform="translate(984.2104,531.0078)">
          <path
             d="m 0,0 c -5.291,-0.587 -7.278,-5.09 -7.278,-8.182 0,-3.092 2.692,-8.212 9.685,-8.212 5.171,0 71.412,10.822 82.353,14.427 5.542,1.826 6.71,7.345 5.783,10.375 -1.058,3.46 -4.428,6.238 -9.385,5.103 C 61.465,9 22.492,2.496 0,0"
             style="fill:#ffe900;fill-opacity:1;fill-rule:nonzero;stroke:none"
             id="path20" />
        </g>
        <g
           id="g22"
           transform="translate(1010.2202,562.2954)">
          <path
             d="m 0,0 c -0.817,4.164 1.717,8.757 7.735,9.408 4.322,0.467 7.587,-2.434 8.062,-6.206 2.24,-17.839 10.77,-58.859 12.141,-66.629 0.702,-3.977 -1.67,-10.022 -7.958,-10.022 -4.751,0 -7.272,2.784 -8.189,7.304 C 10.078,-57.706 1.343,-6.837 0,0"
             style="fill:#ffe900;fill-opacity:1;fill-rule:nonzero;stroke:none"
             id="path24" />
        </g>
        <g
           id="g26"
           transform="translate(995.147,508.4873)">
          <path
             d="m 0,0 c -2.376,-3.485 -2.15,-8.245 1.268,-10.612 4.118,-2.852 8.005,-1.866 11.841,1.144 2.89,2.267 46.532,50.928 49.066,53.938 2.534,3.009 2.608,7.8 -0.458,10.911 -2.27,2.303 -7.071,3.066 -11.664,-0.894 C 46.396,51.335 2.356,3.455 0,0"
             style="fill:#ffe900;fill-opacity:1;fill-rule:nonzero;stroke:none"
             id="path28" />
        </g>
        <g
           id="g30"
           transform="translate(1046.9419,501.2012)">
          <path
             d="m 0,0 c 1.958,-1.678 7.128,-3.168 10.612,0 3.485,3.168 4.345,7.766 0.792,11.246 -15.839,15.514 -88.7,72.069 -236.533,72.069 -155.859,0 -290.6,-71.805 -342.755,-108.463 C -462.932,38.12 -351,73.6 -239.07,73.6 -124.974,73.6 -47.94,41.077 0,0"
             style="fill:#ffe900;fill-opacity:1;fill-rule:nonzero;stroke:none"
             id="path32" />
        </g>
        <g
           id="g34"
           transform="translate(887.5894,330.3848)">
          <path
             d="m 0,0 h -33.289 l -23.049,49.432 v 71.379 z"
             style="fill:#dc2697;fill-opacity:1;fill-rule:nonzero;stroke:none"
             id="path36" />
        </g>
        <g
           id="g38"
           transform="translate(643.313,362.252)">
          <path
             d="m 0,0 12.753,-27.342 c -8.144,-3.779 -17.222,-5.89 -26.786,-5.89 -35.191,0 -63.716,28.527 -63.716,63.703 0,35.191 28.525,63.718 63.716,63.718 9.623,0 18.75,-2.133 26.927,-5.962 L 0.142,60.871 c -4.304,2.028 -9.115,3.153 -14.175,3.153 -18.501,0 -33.553,-15.051 -33.553,-33.553 0,-18.501 15.052,-33.549 33.553,-33.549 5,0 9.764,1.099 14.033,3.078"
             style="fill:#62a70f;fill-opacity:1;fill-rule:nonzero;stroke:none"
             id="path40" />
        </g>
        <g
           id="g42"
           transform="translate(723.5083,363.0684)">
          <path
             d="m 0,0 c -16.096,0 -29.179,13.095 -29.179,29.18 0,16.095 13.083,29.178 29.179,29.178 16.094,0 29.178,-13.083 29.178,-29.178 C 29.178,13.095 16.094,0 0,0 m 0.013,92.906 c -35.189,0 -63.716,-28.526 -63.716,-63.715 0,-35.175 28.527,-63.703 63.716,-63.703 35.187,0 63.703,28.528 63.703,63.703 0,35.189 -28.516,63.715 -63.703,63.715"
             style="fill:#5f6eb3;fill-opacity:1;fill-rule:nonzero;stroke:none"
             id="path44" />
        </g>
        <g
           id="g46"
           transform="translate(1042.7905,330.3828)">
          <path
             d="M 0,0 H -30.16 V 62.96 L 0,127.404 Z"
             style="fill:#f8bf00;fill-opacity:1;fill-rule:nonzero;stroke:none"
             id="path48" />
        </g>
        <g
           id="g50"
           transform="translate(978.2144,364.4336)">
          <path
             d="M 0,0 -16.637,-35.684 -33.274,0 -75.407,90.36 h 33.262 l 25.508,-54.69 z"
             style="fill:#cb003d;fill-opacity:1;fill-rule:nonzero;stroke:none"
             id="path52" />
        </g>
        <g
           id="g54"
           transform="translate(1020.3599,454.7939)">
          <path
             d="M 0,0 -42.146,-90.36 -58.782,-126.044 -75.42,-90.36 -58.782,-54.69 -33.275,0 Z"
             style="fill:#f63440;fill-opacity:1;fill-rule:nonzero;stroke:none"
             id="path56" />
        </g>
        <g
           id="g58"
           transform="translate(852.3647,383.5898)">
          <path
             d="m 0,0 c -11.641,0 -21.11,9.469 -21.11,21.113 0,11.641 9.469,21.11 21.11,21.11 11.64,0 21.109,-9.469 21.109,-21.11 C 21.109,9.469 11.64,0 0,0 m 0,72.383 c -28.32,0 -51.271,-22.951 -51.271,-51.27 0,-28.32 22.951,-51.271 51.271,-51.271 28.319,0 51.271,22.951 51.271,51.271 0,28.319 -22.952,51.27 -51.271,51.27"
             style="fill:#b41a83;fill-opacity:1;fill-rule:nonzero;stroke:none"
             id="path60" />
        </g>
        <path
           d="m 831.254,330.383 h -30.162 v 124.409 h 30.162 z"
           style="fill:#ea6cb0;fill-opacity:1;fill-rule:nonzero;stroke:none"
           id="path62" />
        <g
           id="g64"
           transform="translate(293.6997,351.707)">
          <path
             d="m 0,0 c -13.321,-13.32 -35.385,-21.847 -63.035,-21.847 -34.012,0 -51.932,14.561 -51.932,51.216 0,33.156 22.198,71.988 60.886,71.988 21.407,0 35.815,-11.132 35.815,-33.308 0,-28.293 -37.469,-56.898 -86.21,-75.529 -5.623,-2.148 -13.219,0.509 -16.188,6.543 -2.143,4.359 0.71,9.83 8.466,12.541 25.79,9.014 65.28,36.472 65.28,56.445 0,3.101 -2.39,4.657 -7.163,4.657 -19.258,0 -32.234,-24.63 -32.234,-43.337 0,-15.507 13.427,-22.564 23.28,-22.564 16.806,0 29.91,4.799 45.127,15.401 4.74,3.303 8.595,4.952 12.178,4.119 3.582,-0.84 6.267,-2.749 8.058,-5.731 C 4.118,17.606 4.891,14.147 4.656,10.208 4.415,6.268 2.865,2.866 0,0"
             style="fill:#4e5859;fill-opacity:1;fill-rule:nonzero;stroke:none"
             id="path66" />
        </g>
        <g
           id="g68"
           transform="translate(411.2002,476.9922)">
          <path
             d="m 0,0 c 0,-34.147 1.875,-93.376 6.447,-127.077 1.751,-12.908 -6.834,-19.227 -13.571,-19.227 -6.595,0 -13.709,2.021 -15.081,12.779 -2.224,17.439 -6.447,97.902 -6.447,133.525 0,4.773 1.611,8.596 4.836,11.461 3.222,2.865 6.742,4.298 10.565,4.298 3.582,0 6.682,-1.253 9.312,-3.761 C -1.314,9.49 0,5.49 0,0 m -27.577,-71.996 c 0,8.908 -3.988,20.377 -14.363,20.377 -16.282,0 -35.062,-17.556 -35.062,-44.733 0,-13.037 5.223,-22.563 15.758,-22.563 17.028,0 33.667,19.726 33.667,46.919 m 21.027,-1.945 c 0,-38.046 -17.221,-73.627 -54.694,-73.627 -24.316,0 -44.411,16.716 -44.411,51.216 0,34.948 23.71,71.99 60.17,71.99 25.104,0 38.935,-34.331 38.935,-49.579"
             style="fill:#4e5859;fill-opacity:1;fill-rule:nonzero;stroke:none"
             id="path70" />
        </g>
        <g
           id="g72"
           transform="translate(549.6138,343.4629)">
          <path
             d="m 0,0 c 1.123,-8.608 -5.28,-13.278 -12.626,-13.278 -7.566,0 -16.797,3.92 -16.797,14.958 0,9.443 -5.051,86.158 -5.051,94.519 0,3.817 1.489,6.984 4.477,9.49 2.983,2.507 6.268,3.94 9.85,4.299 3.581,0.358 6.861,-0.538 9.848,-2.687 2.984,-2.149 4.478,-5.854 4.478,-11.102 C -5.821,59.706 -2.344,17.977 0,0 m -33.71,79.289 c 0,7.035 8.504,8.561 13.745,8.561 7.567,0 11.433,-5.661 11.433,-10.916 0,-23.251 -9.288,-90.973 -58.892,-90.973 -24.837,0 -47.634,16.942 -47.634,59.454 0,21.65 6.607,46.813 8.521,54.216 1.433,3.816 3.996,6.504 7.701,8.058 3.699,1.551 7.28,1.909 10.745,1.075 3.458,-0.84 6.205,-2.748 8.237,-5.73 2.025,-2.989 1.727,-6.85 0.537,-11.999 -9.911,-42.885 -9.555,-76.421 11.893,-76.421 32.095,0 33.714,55.673 33.714,64.675"
             style="fill:#4e5859;fill-opacity:1;fill-rule:nonzero;stroke:none"
             id="path74" />
        </g>
      </g>
    </g>
  </g>
</svg>
