<svg xmlns="http://www.w3.org/2000/svg" width="512" height="512" viewBox="0 0 512 512" version="1.1">
	<path d="M 223.500 1.528 C 177.345 7.541, 135.005 25.189, 98 53.835 C 86.312 62.884, 66.419 82.471, 56.703 94.500 C 29.057 128.725, 10.771 169.093, 2.968 213.128 C 0.200 228.745, -0.880 266.175, 0.943 283.279 C 5.202 323.232, 19.063 362.334, 40.724 395.500 C 50.536 410.523, 59.121 421.171, 72.458 434.860 C 114.405 477.913, 167.327 503.881, 227.500 510.939 C 240.860 512.506, 273.544 512.250, 287.959 510.465 C 362.772 501.203, 429.621 459.279, 471.276 395.500 C 492.169 363.510, 507.586 320.858, 510.595 286.722 C 510.972 282.444, 511.668 278.705, 512.140 278.413 C 512.613 278.121, 513 267.532, 513 254.882 C 513 242.210, 512.612 232.122, 512.136 232.416 C 511.660 232.710, 510.958 229.474, 510.574 225.225 C 509.640 214.868, 506.643 199.637, 502.954 186.501 C 486.258 127.039, 447.823 74.896, 395.500 40.724 C 363.380 19.746, 326.500 6.306, 287.959 1.535 C 272.825 -0.339, 237.855 -0.342, 223.500 1.528 M 245.981 98.950 C 241.367 101.390, 237.309 105.522, 234.649 110.487 C 232.507 114.487, 232.500 114.731, 232.500 187 C 232.500 266.159, 232.343 263.904, 238.345 270.740 C 241.157 273.942, 334.761 337.240, 342.939 341.468 C 344.965 342.516, 348.538 343.200, 351.988 343.200 C 372.180 343.200, 382.813 318.821, 368.998 304.196 C 367.802 302.930, 347.306 288.877, 323.453 272.968 L 280.083 244.044 279.791 179.772 C 279.506 116.856, 279.456 115.405, 277.397 111 C 274.904 105.665, 270.925 101.512, 265.803 98.899 C 260.835 96.365, 250.820 96.390, 245.981 98.950 M 0.430 256 C 0.430 268.925, 0.573 274.212, 0.747 267.750 C 0.921 261.287, 0.921 250.712, 0.747 244.250 C 0.573 237.787, 0.430 243.075, 0.430 256" stroke="none" fill="black" fill-rule="evenodd"/>
</svg>